<?xml version="1.0" encoding="UTF-8"?>
<svg width="88px" height="88px" viewBox="0 0 88 88" version="1.1" xmlns="http://www.w3.org/2000/svg" xmlns:xlink="http://www.w3.org/1999/xlink">
    <!-- Generator: Sketch 50.2 (55047) - http://www.bohemiancoding.com/sketch -->
    <title>Group</title>
    <desc>Created with Sketch.</desc>
    <defs></defs>
    <g id="Page-1" stroke="none" stroke-width="1" fill="none" fill-rule="evenodd">
        <g id="Group" transform="translate(3.000000, 3.000000)">
            <path d="M69.8418994,64.73 C68.1311936,60.77 59.7877513,58.16 54.265473,55.7 C48.7131823,53.24 49.4935042,51.77 49.2834175,49.73 C49.2534051,49.46 49.2534051,49.16 49.2233928,48.86 C51.1141728,47.18 52.6748167,44.87 53.6952377,42.2 C53.6952377,42.2 53.7552625,42.05 53.7552625,42.02 C53.9653492,41.45 54.1454235,40.85 54.3254978,40.22 C55.5860178,39.95 56.3363274,38.57 56.6064388,37.28 C56.9065626,36.77 57.4767979,35.48 57.3567484,34.04 C57.1766741,32.18 56.4263645,31.31 55.5860178,30.95 L55.5860178,30.62 C55.5860178,28.25 55.3759311,24.83 54.9257454,22.58 C54.8357083,21.95 54.6856463,21.32 54.5055721,20.72 C53.6952377,17.96 51.9845319,15.5 49.7035909,13.76 C47.3326127,11.96 44.0012382,11 41.0300124,11 C38.0587865,11 34.7274121,11.96 32.3564339,13.76 C30.0754928,15.5 28.364787,17.99 27.5544527,20.72 C27.3743784,21.32 27.2243165,21.95 27.1342794,22.58 C26.6840936,24.83 26.4740069,28.25 26.4740069,30.62 L26.4740069,30.92 C25.6036479,31.25 24.8233259,32.12 24.6432516,34.04 C24.4931897,35.48 25.0934374,36.77 25.3935612,37.28 C25.693685,38.57 26.4439946,40.01 27.7645394,40.22 C27.9146013,40.85 28.124688,41.45 28.3347747,42.02 C28.3347747,42.05 28.364787,42.11 28.364787,42.14 L28.3947994,42.2 C29.4152204,44.93 31.0058767,47.27 32.9566815,48.95 C32.9566815,49.22 32.9266692,49.49 32.8966568,49.73 C32.6865701,51.77 33.2868177,53.24 27.734527,55.7 C22.1822363,58.16 13.8688064,60.77 12.1581006,64.73 C10.4473948,68.69 11.1376796,71 11.1376796,71 L70.8623204,71 C70.8623204,71 71.5526052,68.69 69.8418994,64.73 L69.8418994,64.73 Z" id="Icon" fill="#5C7080"></path>
            <circle id="Oval" stroke="#5C7080" stroke-width="6" cx="41" cy="41" r="41"></circle>
            <polygon id="Path-2" fill="#5C7080" points="15.5410156 66.5849609 13.4365234 70.2910156 23.8554688 79.5644531 35.2734375 82.1494141 47.0244141 82.1494141 60.9052734 77.4150391 69.4384766 70.2910156"></polygon>
        </g>
    </g>
</svg>