<?xml version="1.0" encoding="UTF-8"?>
<svg width="68px" height="52px" viewBox="0 0 68 52" version="1.1" xmlns="http://www.w3.org/2000/svg" xmlns:xlink="http://www.w3.org/1999/xlink">
    <!-- Generator: Sketch 50.2 (55047) - http://www.bohemiancoding.com/sketch -->
    <title>Page 1</title>
    <desc>Created with Sketch.</desc>
    <defs>
        <polygon id="path-1" points="0 50.3540625 67.78625 50.3540625 67.78625 -3.55271368e-15 0 -3.55271368e-15"></polygon>
    </defs>
    <g id="Page-1" stroke="none" stroke-width="1" fill="none" fill-rule="evenodd">
        <g id="icon" transform="translate(-1.000000, -9.000000)">
            <g id="Page-1" transform="translate(1.093750, 9.843750)">
                <path d="M7.6566875,30.0505625 L7.6566875,22.8515 C7.6566875,14.189 14.637,7.1649375 23.2448125,7.1649375 L34.9348125,7.1649375 L22.96875,7.1649375 C20.5015446,7.71558453 18.6786279,8.2439387 17.5,8.75 C15.5279143,9.59674413 13.0437264,11.0187736 12.03125,12.03125 C10.9375,13.125 9.48849204,14.5703603 8.75,16.40625 C8.27020428,17.5990212 7.90576678,19.7474379 7.6566875,22.8515 L7.6566875,30.0505625 Z" id="Stroke-1" stroke="#3F1320" stroke-width="2.1875" stroke-linecap="round" stroke-linejoin="round"></path>
                <path d="M45.2913125,33.8331875 L45.2913125,45.6281875 C45.2913125,47.634125 43.67475,49.2594375 41.6819375,49.2594375 L11.26475,49.2594375 C9.2719375,49.2594375 7.6575625,47.634125 7.6575625,45.6281875 L7.6575625,38.8731875" id="Stroke-3" stroke="#3F1320" stroke-width="2.1875" stroke-linecap="round" stroke-linejoin="round"></path>
                <path d="M53.9492188,28.8367187 L36.9676563,28.8367187 C35.8476563,28.8367187 34.9310938,27.9201562 34.9310938,26.7979687 L34.9310938,20.2945312 L34.9310938,12.3626562 L34.9310938,1.09703125 L55.9879688,1.09703125 L55.9879688,13.2485937 C55.9879688,14.2854687 55.9792188,18.7085937 55.9814063,20.3142187 L55.9879688,26.7979687 C55.9879688,27.9179687 55.0714063,28.8367187 53.9492188,28.8367187 Z" id="Stroke-5" stroke="#3F1320" stroke-width="2.1875" stroke-linecap="round" stroke-linejoin="round"></path>
                <mask id="mask-2" fill="white">
                    <use xlink:href="#path-1"></use>
                </mask>
                <g id="Clip-8"></g>
                <polygon id="Fill-7" fill="#D52162" mask="url(#mask-2)" points="34.934375 7.1246875 41.93875 7.1246875 41.93875 1.1003125 34.934375 1.1003125"></polygon>
                <polygon id="Fill-9" fill="#DB4F7C" mask="url(#mask-2)" points="41.9475 7.1246875 48.951875 7.1246875 48.951875 1.1003125 41.9475 1.1003125"></polygon>
                <polygon id="Fill-10" fill="#E47BA1" mask="url(#mask-2)" points="48.951875 7.1246875 55.95625 7.1246875 55.95625 1.1003125 48.951875 1.1003125"></polygon>
                <path d="M52.119375,7.126 L38.7996875,7.126 C36.6603125,7.126 34.9278125,5.3935 34.9278125,3.2563125 L34.9278125,1.092875 L55.9890625,1.092875 L55.9890625,3.2563125 C55.9890625,5.3935 54.2565625,7.126 52.119375,7.126 Z" id="Stroke-11" stroke="#3F1320" stroke-width="2.1875" stroke-linecap="round" mask="url(#mask-2)"></path>
                <path d="M55.9965,26.52125 L55.9965,26.8778125 C55.9965,28.021875 55.069,28.9515625 53.92275,28.9515625 L37.0068125,28.9515625 C35.86275,28.9515625 34.9330625,28.021875 34.9330625,26.8778125 L34.9330625,26.52125 C34.9330625,23.305625 37.5405625,20.7003125 40.7561875,20.7003125 L50.1755625,20.7003125 C53.389,20.7003125 55.9965,23.305625 55.9965,26.52125 Z" id="Stroke-12" stroke="#3F1320" stroke-width="2.1875" stroke-linecap="round" mask="url(#mask-2)"></path>
                <path d="M24.2206563,1.39409375 L24.2206563,1.13378125 L66.6931563,1.13378125 L66.6931563,1.39409375 C66.6931563,4.58128125 64.1075313,7.16690625 60.9203438,7.16690625 L29.9934688,7.16690625 C26.8040937,7.16690625 24.2206563,4.58128125 24.2206563,1.39409375 Z" id="Stroke-13" stroke="#3F1320" stroke-width="2.1875" stroke-linecap="round" mask="url(#mask-2)"></path>
                <path d="M52.0664375,33.6599375 L38.8451875,33.6599375 C37.5764375,33.6599375 36.5395625,32.620875 36.5395625,31.352125 L36.5395625,31.1443125 C36.5395625,29.8755625 37.5764375,28.8386875 38.8451875,28.8386875 L52.0664375,28.8386875 C53.3351875,28.8386875 54.37425,29.8755625 54.37425,31.1443125 L54.37425,31.352125 C54.37425,32.620875 53.3351875,33.6599375 52.0664375,33.6599375 Z" id="Stroke-14" stroke="#3F1320" stroke-width="2.1875" stroke-linecap="round" mask="url(#mask-2)"></path>
                <path d="M41.864375,11.874625 C41.864375,12.6380625 41.2453125,13.257125 40.481875,13.257125 C39.71625,13.257125 39.0971875,12.6380625 39.0971875,11.874625 C39.0971875,11.1111875 39.71625,10.492125 40.481875,10.492125 C41.2453125,10.492125 41.864375,11.1111875 41.864375,11.874625" id="Fill-15" fill="#401220" mask="url(#mask-2)"></path>
                <path d="M52.3418438,11.874625 C52.3418438,12.6380625 51.7227812,13.257125 50.9593437,13.257125 C50.1937188,13.257125 49.5746562,12.6380625 49.5746562,11.874625 C49.5746562,11.1111875 50.1937188,10.492125 50.9593437,10.492125 C51.7227812,10.492125 52.3418438,11.1111875 52.3418438,11.874625" id="Fill-16" fill="#401220" mask="url(#mask-2)"></path>
                <path d="M39.3001875,49.2603125 L28.99925,49.2603125 L28.99925,45.255 C28.99925,42.4221875 31.318,40.105625 34.1508125,40.105625 C36.983625,40.105625 39.3001875,42.4221875 39.3001875,45.255 L39.3001875,49.2603125 Z" id="Stroke-17" stroke="#3F1320" stroke-width="2.1875" stroke-linecap="round" stroke-linejoin="round" mask="url(#mask-2)"></path>
                <path d="M23.9704062,49.2603125 L13.6694688,49.2603125 L13.6694688,45.255 C13.6694688,42.4221875 15.9882188,40.105625 18.8210312,40.105625 C21.6538438,40.105625 23.9704062,42.4221875 23.9704062,45.255 L23.9704062,49.2603125 Z" id="Stroke-18" stroke="#3F1320" stroke-width="2.1875" stroke-linecap="round" stroke-linejoin="round" mask="url(#mask-2)"></path>
                <path d="M18.8201563,40.1049687 L34.1501563,40.1049687" id="Stroke-19" stroke="#3F1320" stroke-width="2.1875" stroke-linecap="round" stroke-linejoin="round" mask="url(#mask-2)"></path>
                <path d="M45.7163438,25.0495 C43.9816563,25.0495 42.5750938,23.6429375 42.5750938,21.90825 L42.5750938,20.71825 L48.8575937,20.71825 L48.8575937,21.90825 C48.8575937,23.6429375 47.4510312,25.0495 45.7163438,25.0495" id="Fill-20" fill="#3E131F" mask="url(#mask-2)"></path>
                <path d="M1.09375,25.2595 L1.09375,20.5235625 C1.09375,16.426375 4.445,13.075125 8.5421875,13.075125 C9.3975,13.075125 9.9728125,13.1823125 10.7384375,13.451375" id="Stroke-21" stroke="#3F1320" stroke-width="2.1875" stroke-linecap="round" stroke-linejoin="round" mask="url(#mask-2)"></path>
                <path d="M8.75196875,34.6285625 C8.75196875,35.230125 8.26415625,35.71575 7.66478125,35.71575 C7.06321875,35.71575 6.57759375,35.230125 6.57759375,34.6285625 C6.57759375,34.027 7.06321875,33.541375 7.66478125,33.541375 C8.26415625,33.541375 8.75196875,34.027 8.75196875,34.6285625" id="Fill-22" fill="#D52162" mask="url(#mask-2)"></path>
            </g>
        </g>
    </g>
</svg>