<?xml version="1.0" encoding="UTF-8"?>
<svg width="128px" height="128px" viewBox="0 0 128 128" version="1.1" xmlns="http://www.w3.org/2000/svg" xmlns:xlink="http://www.w3.org/1999/xlink">
    <!-- Generator: Sketch 50.2 (55047) - http://www.bohemiancoding.com/sketch -->
    <title>calendar-8</title>
    <desc>Created with Sketch.</desc>
    <defs></defs>
    <g id="Page-1" stroke="none" stroke-width="1" fill="none" fill-rule="evenodd">
        <path d="M69.75,91 C69.75,96.514 74.236,101 79.75,101 L91.5,101 C97.014,101 101.5,96.514 101.5,91 L101.5,79.25 C101.5,73.736 97.014,69.25 91.5,69.25 L79.75,69.25 C74.236,69.25 69.75,73.736 69.75,79.25 L69.75,91 Z M79.75,79.25 L91.5,79.25 L91.50625,90.99975 C91.50625,90.99975 91.5045,91 91.5,91 L79.75,91 L79.75,79.25 Z M96.5,57.5 C93.7385763,57.5 91.5,55.2614237 91.5,52.5 C91.5,49.7385763 93.7385763,47.5 96.5,47.5 C99.2614237,47.5 101.5,49.7385763 101.5,52.5 C101.5,55.2614237 99.2614237,57.5 96.5,57.5 Z M74.75,57.5 C71.9885763,57.5 69.75,55.2614237 69.75,52.5 C69.75,49.7385763 71.9885763,47.5 74.75,47.5 C77.5114237,47.5 79.75,49.7385763 79.75,52.5 C79.75,55.2614237 77.5114237,57.5 74.75,57.5 Z M123,88 C120.2385,88 118,85.7615 118,83 L118,30 C118,24.486 113.514,20 108,20 L101.5,20 L101.5,25 C101.5,27.7615 99.2615,30 96.5,30 C93.7385,30 91.5,27.7615 91.5,25 L91.5,20 L68.75,20 L68.75,25 C68.75,27.7615 66.5115,30 63.75,30 C60.9885,30 58.75,27.7615 58.75,25 L58.75,20 L36.25,20 L36.25,25 C36.25,27.7615 34.0115,30 31.25,30 C28.4885,30 26.25,27.7615 26.25,25 L26.25,20 L20,20 C14.486,20 10,24.486 10,30 L10,108 C10,113.514 14.486,118 20,118 L108,118 C113.514,118 118,113.514 118,108 C118,105.2385 120.2385,103 123,103 C125.7615,103 128,105.2385 128,108 C128,119.028 119.028,128 108,128 L20,128 C8.972,128 0,119.028 0,108 L0,30 C0,18.972 8.972,10 20,10 L26.25,10 L26.25,5 C26.25,2.2385 28.4885,0 31.25,0 C34.0115,0 36.25,2.2385 36.25,5 L36.25,10 L58.75,10 L58.75,5 C58.75,2.2385 60.9885,0 63.75,0 C66.5115,0 68.75,2.2385 68.75,5 L68.75,10 L91.5,10 L91.5,5 C91.5,2.2385 93.7385,0 96.5,0 C99.2615,0 101.5,2.2385 101.5,5 L101.5,10 L108,10 C119.028,10 128,18.972 128,30 L128,83 C128,85.7615 125.7615,88 123,88 Z M31.25,101 C28.4885763,101 26.25,98.7614237 26.25,96 C26.25,93.2385763 28.4885763,91 31.25,91 C34.0114237,91 36.25,93.2385763 36.25,96 C36.25,98.7614237 34.0114237,101 31.25,101 Z M31.25,57.5 C28.4885763,57.5 26.25,55.2614237 26.25,52.5 C26.25,49.7385763 28.4885763,47.5 31.25,47.5 C34.0114237,47.5 36.25,49.7385763 36.25,52.5 C36.25,55.2614237 34.0114237,57.5 31.25,57.5 Z M31.25,79.25 C28.4885763,79.25 26.25,77.0114237 26.25,74.25 C26.25,71.4885763 28.4885763,69.25 31.25,69.25 C34.0114237,69.25 36.25,71.4885763 36.25,74.25 C36.25,77.0114237 34.0114237,79.25 31.25,79.25 Z M53,79.25 C50.2385763,79.25 48,77.0114237 48,74.25 C48,71.4885763 50.2385763,69.25 53,69.25 C55.7614237,69.25 58,71.4885763 58,74.25 C58,77.0114237 55.7614237,79.25 53,79.25 Z M53,57.5 C50.2385763,57.5 48,55.2614237 48,52.5 C48,49.7385763 50.2385763,47.5 53,47.5 C55.7614237,47.5 58,49.7385763 58,52.5 C58,55.2614237 55.7614237,57.5 53,57.5 Z M53,101 C50.2385763,101 48,98.7614237 48,96 C48,93.2385763 50.2385763,91 53,91 C55.7614237,91 58,93.2385763 58,96 C58,98.7614237 55.7614237,101 53,101 Z" id="calendar-8" fill="#007BFF" fill-rule="nonzero"></path>
    </g>
</svg>