<?xml version="1.0" encoding="UTF-8"?>

<svg width="488.1629638671875" height="80"  viewBox="0 0 488 80" version="1.1" xmlns="http://www.w3.org/2000/svg" xmlns:xlink="http://www.w3.org/1999/xlink">
  <title>WorkLog Logo</title>
  <desc>todayears</desc>
  <defs id="SvgjsDefs1173"></defs>
  <g id="SvgjsG1174" featurekey="root" fill="#ffffff"></g>
  <g id="SvgjsG1175" featurekey="text1" fill="#545454" transform="matrix(3.9999989827476545,0,0,3.9999989827476545,-0.7969074606812895,-9.999989191693828)">
    <path d="M20.72 5.300000000000001 c0.12 0.18 0.16 0.4 0.1 0.62 l-4.22 13.54 c-0.08 0.3 -0.36 0.5 -0.68 0.5 l-1.74 0 c-0.3 0 -0.58 -0.2 -0.66 -0.48 l-3 -9.28 l-2.98 9.28 c-0.1 0.28 -0.36 0.48 -0.68 0.48 l-1.74 0 c-0.22 0 -0.44 -0.1 -0.58 -0.28 c-0.12 -0.2 -0.16 -0.44 -0.08 -0.64 l4.52 -13.56 c0.08 -0.28 0.36 -0.48 0.66 -0.48 l1.76 0 c0.32 0 0.58 0.2 0.68 0.5 l2.96 9.2 l2.8 -9.2 c0.1 -0.3 0.38 -0.5 0.68 -0.5 l1.62 0 c0.22 0 0.44 0.1 0.58 0.3 z M3.2 5.5 l1.14 3.74 c0.08 0.22 0.04 0.46 -0.1 0.64 s-0.34 0.28 -0.58 0.28 l-1.58 0 c-0.32 0 -0.6 -0.2 -0.68 -0.5 l-1.16 -3.74 c-0.08 -0.22 -0.04 -0.44 0.1 -0.62 c0.14 -0.2 0.34 -0.3 0.56 -0.3 l1.62 0 c0.32 0 0.6 0.2 0.68 0.5 z M29.259999999999998 5 c2.16 0 3.98 0.74 5.38 2.2 c1.36 1.42 2.06 3.2 2.06 5.3 s-0.7 3.88 -2.06 5.3 c-1.4 1.46 -3.22 2.2 -5.38 2.2 s-3.98 -0.74 -5.38 -2.2 c-1.36 -1.42 -2.06 -3.2 -2.06 -5.3 s0.7 -3.88 2.06 -5.3 c1.4 -1.46 3.22 -2.2 5.38 -2.2 z M29.259999999999998 17.14 c1.4 0 2.48 -0.44 3.32 -1.32 c0.82 -0.86 1.22 -1.96 1.22 -3.32 s-0.4 -2.44 -1.22 -3.32 c-0.84 -0.88 -1.92 -1.32 -3.32 -1.32 s-2.48 0.44 -3.32 1.32 c-0.82 0.88 -1.22 1.96 -1.22 3.32 s0.4 2.46 1.22 3.32 c0.84 0.88 1.92 1.32 3.32 1.32 z M48.52 14.02 l2.98 4.58 c0.14 0.22 0.14 0.5 0.02 0.72 s-0.36 0.36 -0.6 0.36 l-1.8 0 c-0.24 0 -0.46 -0.12 -0.58 -0.32 l-3 -4.78 l-3.54 0 l0 4.4 c0 0.38 -0.32 0.7 -0.7 0.7 l-1.5 0 c-0.38 0 -0.7 -0.32 -0.7 -0.7 l0 -13.28 c0 -0.38 0.32 -0.7 0.7 -0.7 l6.36 0 c1.52 0 2.78 0.44 3.72 1.3 c0.96 0.88 1.44 2.06 1.44 3.56 c0 1.92 -0.86 3.32 -2.48 4.02 c-0.1 0.06 -0.22 0.1 -0.32 0.14 z M42 7.82 l0 3.94 l3.9 0 c1.16 0 1.92 -0.32 2.34 -0.98 c0.12 -0.22 0.2 -0.54 0.2 -0.92 c0 -0.66 -0.2 -1.12 -0.62 -1.48 c-0.46 -0.38 -1.06 -0.56 -1.84 -0.56 l-3.98 0 z M60.900000000000006 10.58 l5.62 8 c0.16 0.22 0.18 0.5 0.06 0.72 c-0.12 0.24 -0.36 0.38 -0.62 0.38 l-1.9 0 c-0.22 0 -0.44 -0.12 -0.56 -0.3 l-4.74 -6.82 l-1.94 1.82 l0 4.6 c0 0.38 -0.32 0.7 -0.7 0.7 l-1.5 0 c-0.38 0 -0.7 -0.32 -0.7 -0.7 l0 -13.28 c0 -0.38 0.32 -0.7 0.7 -0.7 l1.5 0 c0.38 0 0.7 0.32 0.7 0.7 l0 4.76 l5.62 -5.28 c0.12 -0.12 0.3 -0.18 0.48 -0.18 l2.12 0 c0.28 0 0.54 0.18 0.64 0.44 c0.12 0.26 0.04 0.56 -0.16 0.76 z M77.62 16.84 c0.4 0 0.7 0.32 0.7 0.7 l0 1.44 c0 0.38 -0.3 0.7 -0.7 0.7 l-8.74 0 c-0.38 0 -0.7 -0.32 -0.7 -0.7 l0 -13.28 c0 -0.38 0.32 -0.7 0.7 -0.7 l1.5 0 c0.38 0 0.7 0.32 0.7 0.7 l0 11.14 l6.54 0 z M86.86 5 c2.16 0 3.98 0.74 5.38 2.2 c1.36 1.42 2.06 3.2 2.06 5.3 s-0.7 3.88 -2.06 5.3 c-1.4 1.46 -3.22 2.2 -5.38 2.2 s-3.98 -0.74 -5.38 -2.2 c-1.36 -1.42 -2.06 -3.2 -2.06 -5.3 s0.7 -3.88 2.06 -5.3 c1.4 -1.46 3.22 -2.2 5.38 -2.2 z M86.86 17.14 c1.4 0 2.48 -0.44 3.32 -1.32 c0.82 -0.86 1.22 -1.96 1.22 -3.32 s-0.4 -2.44 -1.22 -3.32 c-0.84 -0.88 -1.92 -1.32 -3.32 -1.32 s-2.48 0.44 -3.32 1.32 c-0.82 0.88 -1.22 1.96 -1.22 3.32 s0.4 2.46 1.22 3.32 c0.84 0.88 1.92 1.32 3.32 1.32 z M110.72 12 l0 0.08 c0.02 0.14 0.02 0.28 0.02 0.42 c0 0.32 -0.02 0.64 -0.06 1.02 c-0.2 1.68 -0.88 3.12 -2 4.28 c-1.4 1.46 -3.22 2.2 -5.38 2.2 s-3.98 -0.74 -5.38 -2.2 c-1.36 -1.42 -2.06 -3.2 -2.06 -5.3 s0.7 -3.88 2.06 -5.3 c1.4 -1.46 3.22 -2.2 5.38 -2.2 s3.98 0.74 5.38 2.2 c0.54 0.56 0.98 1.2 1.32 1.9 c0.06 0.1 0.1 0.24 0.1 0.38 c0 0.38 -0.3 0.68 -0.7 0.68 l0 0 l-1.68 0 c-0.24 0 -0.46 -0.12 -0.58 -0.32 c-0.16 -0.24 -0.32 -0.46 -0.52 -0.66 c-0.84 -0.88 -1.92 -1.32 -3.32 -1.32 s-2.48 0.44 -3.32 1.32 c-0.82 0.88 -1.22 1.96 -1.22 3.32 s0.4 2.46 1.22 3.32 c0.84 0.88 1.92 1.32 3.32 1.32 s2.48 -0.44 3.32 -1.32 c0.46 -0.48 0.78 -1.04 0.98 -1.68 l-4.18 0 c-0.38 0 -0.7 -0.32 -0.7 -0.7 l0 -1.4 c0 -0.38 0.32 -0.7 0.7 -0.7 l6.6 0 c0.38 0 0.68 0.28 0.7 0.66 z"></path>
  </g>
</svg>