<?xml version="1.0" encoding="UTF-8"?>
<svg width="159px" height="37px" viewBox="0 0 159 37" version="1.1" xmlns="http://www.w3.org/2000/svg" xmlns:xlink="http://www.w3.org/1999/xlink">
    <!-- Generator: Sketch 55.2 (78181) - https://sketchapp.com -->
    <title>Group</title>
    <desc>Created with Sketch.</desc>
    <g id="Page-1" stroke="none" stroke-width="1" fill="none" fill-rule="evenodd">
        <g id="iPhone-8" transform="translate(-36.000000, -260.000000)" fill-rule="nonzero">
            <g id="Group" transform="translate(36.000000, 251.000000)">
                <rect id="Rectangle" fill="#86FBE1" x="0" y="33" width="159" height="10"></rect>
                <path d="M21.2304688,21.9648438 L13.671875,38 L5.83984375,38 L4.55078125,9.81640625 L13.0664062,9.81640625 L12.5976562,27.375 L12.7539062,27.375 L20.6835938,9.81640625 L27.0898438,9.81640625 L27.7539063,27.375 L27.9101562,27.375 L34.7460938,9.81640625 L43.2617188,9.81640625 L30.0195312,38 L22.2851562,38 L21.3867188,21.9648438 L21.2304688,21.9648438 Z M51.6796875,32.6289062 C54.296875,32.6289062 56.3085938,29.6601562 56.3085938,25.8320312 C56.3085938,23.4101562 55.15625,21.8085938 53.3984375,21.8085938 C50.7226562,21.8085938 48.75,24.6992188 48.75,28.6054688 C48.75,31.0078125 49.921875,32.6289062 51.6796875,32.6289062 Z M53.7890625,15.890625 C60,15.890625 64.21875,19.8359375 64.21875,25.6757812 C64.21875,33.1953125 58.8671875,38.546875 51.328125,38.546875 C45.1171875,38.546875 40.8984375,34.6015625 40.8984375,28.7617188 C40.8984375,21.2421875 46.25,15.890625 53.7890625,15.890625 Z M64.5507812,38 L69.1796875,16.4375 L76.7382812,16.4375 L76.1132812,19.5625 L76.2695312,19.5625 C77.2460938,17.5507812 79.1601562,16.125 81.484375,16.125 C82.7148438,16.125 83.59375,16.3007812 84.453125,16.6914062 L82.9882812,23.390625 C81.9921875,22.921875 81.0546875,22.5898438 79.7460938,22.5898438 C77.1875,22.5898438 75.3320312,24.015625 74.6875,26.984375 L72.3046875,38 L64.5507812,38 Z M89.9023438,38 L82.1679688,38 L88.1835938,9.81640625 L95.8984375,9.81640625 L92.890625,23.9765625 L93.046875,23.9765625 L99.9414062,16.4375 L108.769531,16.4375 L99.1992188,25.9296875 L104.882812,38 L96.5234375,38 L92.9882812,30.109375 L91.1914062,31.90625 L89.9023438,38 Z M107.773438,38 L113.769531,9.81640625 L115.292969,9.81640625 L109.296875,38 L107.773438,38 Z M123.28125,36.9453125 C128.339844,36.9453125 132.1875,32.2382812 132.1875,26.0273438 C132.1875,21.6328125 129.53125,18.7421875 125.449219,18.7421875 C120.410156,18.7421875 116.5625,23.4492188 116.5625,29.6601562 C116.5625,34.0546875 119.199219,36.9453125 123.28125,36.9453125 Z M125.449219,17.3554688 C130.46875,17.3554688 133.710938,20.7929688 133.710938,25.9882812 C133.710938,33.0195312 129.238281,38.3320312 123.28125,38.3320312 C118.261719,38.3320312 115.039062,34.8945312 115.039062,29.6992188 C115.039062,22.6679688 119.511719,17.3554688 125.449219,17.3554688 Z M142.695312,45.3242188 C138.105469,45.3242188 134.902344,42.7851562 134.863281,39.7578125 L136.425781,39.7578125 C136.621094,42.1015625 139.042969,43.9960938 142.773438,43.9960938 C146.699219,43.9960938 149.550781,41.75 150.390625,37.9804688 L151.464844,33.1757812 L151.386719,33.1757812 C149.84375,36.1640625 146.835938,38.0195312 143.554688,38.0195312 C139.003906,38.0195312 136.035156,34.7773438 136.035156,29.7382812 C136.035156,23.1367188 140.488281,17.375 146.464844,17.375 C150.292969,17.375 153.066406,19.8554688 153.417969,23.4882812 L153.515625,23.4882812 L154.765625,17.6875 L156.269531,17.6875 L151.914062,38.0390625 C150.917969,42.6875 147.421875,45.3242188 142.695312,45.3242188 Z M143.847656,36.6523438 C148.945312,36.6523438 152.714844,31.7890625 152.714844,25.6953125 C152.714844,21.4765625 150.214844,18.7421875 146.445312,18.7421875 C141.523438,18.7421875 137.558594,23.7226562 137.558594,29.6796875 C137.558594,33.9570312 139.902344,36.6523438 143.847656,36.6523438 Z" id="Worklog" fill="#2E2E2E"></path>
            </g>
        </g>
    </g>
</svg>